<svg xmlns="http://www.w3.org/2000/svg" width="17" height="17" viewBox="0 0 17 17">
    <path fill="#122033" fill-rule="evenodd" d="M12.137 1.537L9.45 4.225H4.097c-.89 0-1.213.093-1.539.267-.325.174-.58.43-.755.755-.174.325-.267.648-.267 1.538v6.018c0 .89.093 1.213.267 1.539.174.325.43.58.755.755.326.174.648.267 1.539.267h7.17c.89 0 1.213-.093 1.539-.267.325-.174.58-.43.755-.755.174-.326.266-.648.266-1.539V6.3l1.537-1.537v7.707c0 1.54-.16 2.1-.461 2.663a3.141 3.141 0 0 1-1.307 1.307c-.563.3-1.122.461-2.663.461H4.43c-1.54 0-2.1-.16-2.663-.461a3.141 3.141 0 0 1-1.306-1.307C.16 14.568 0 14.01 0 12.469V5.968c0-1.54.16-2.1.462-2.663a3.141 3.141 0 0 1 1.306-1.307c.564-.301 1.123-.461 2.663-.461h7.706zm4.25-1.244l.217.217a.999.999 0 0 1 0 1.412l-9.326 9.33-2.285.655.656-2.285 9.326-9.33a.999.999 0 0 1 1.412 0z"/>
</svg>
