<?xml version="1.0" encoding="UTF-8"?>
<svg width="19px" height="19px" viewBox="0 0 19 19" version="1.1" xmlns="http://www.w3.org/2000/svg" xmlns:xlink="http://www.w3.org/1999/xlink">
    <!-- Generator: Sketch 52.1 (67048) - http://www.bohemiancoding.com/sketch -->
    <title>Compose</title>
    <desc>Created with Sketch.</desc>
    <g id="Workflow" stroke="none" stroke-width="1" fill="none" fill-rule="evenodd">
        <g id="Home" transform="translate(-319.000000, -608.000000)" fill="#FFFFFF">
            <g id="Compose" transform="translate(319.000000, 608.000000)">
                <path d="M13.6454539,1.72751518 L10.6229691,4.75 L4.60581646,4.75 C3.60488409,4.75 3.24192183,4.85421784 2.87599592,5.04991716 C2.51007001,5.24561648 2.2228892,5.53279728 2.02718989,5.89872319 C1.83149057,6.26464908 1.72727273,6.62761135 1.72727273,7.6285437 L1.72727273,14.3941833 C1.72727273,15.3951158 1.83149058,15.758078 2.02718991,16.1240039 C2.22288926,16.48993 2.51007008,16.7771107 2.87599602,16.9728101 C3.24192197,17.1685094 3.60488427,17.2727273 4.60581672,17.2727273 L12.6669106,17.2727273 C13.667843,17.2727273 14.0308053,17.1685094 14.3967312,16.9728101 C14.7626572,16.7771107 15.049838,16.48993 15.2455374,16.1240039 C15.4412367,15.758078 15.5454545,15.3951158 15.5454545,14.3941833 L15.5454545,7.08181801 L17.2734766,5.353796 L17.2734766,14.0181473 C17.2734766,15.7505304 17.0930995,16.3787343 16.7543891,17.0120677 C16.4156788,17.645401 15.9186351,18.1424447 15.2853017,18.481155 C14.6519684,18.8198654 14.0237645,19.0002424 12.2913815,19.0002424 L4.9820951,19.0002424 C3.2497121,19.0002424 2.62150816,18.8198654 1.98817483,18.481155 C1.35484149,18.1424447 0.857797785,17.645401 0.51908741,17.0120677 C0.180377044,16.3787343 -4.4408921e-16,15.7505304 -4.4408921e-16,14.0181473 L-4.4408921e-16,6.70961025 C-4.4408921e-16,4.97722727 0.180377044,4.34902334 0.51908741,3.71569 C0.857797785,3.08235667 1.35484149,2.58531296 1.98817483,2.24660259 C2.62150816,1.90789221 3.2497121,1.72751518 4.9820951,1.72751518 L13.6454539,1.72751518 Z M18.4230953,0.328976364 L18.6672313,0.57338669 C19.1056301,1.01178543 19.1056915,1.72255128 18.6673685,2.16102575 L8.18284547,12.6494463 L5.61363636,13.3863636 L6.35079612,10.817397 L16.8353191,0.32897639 C17.2736957,-0.109551651 17.9845673,-0.10967446 18.4230953,0.328702081 L18.4232325,0.328839227 L18.4230953,0.328976364 Z" id="Shape"></path>
            </g>
        </g>
    </g>
</svg>
