<?xml version="1.0" encoding="UTF-8"?>
<svg width="12px" height="23px" viewBox="0 0 12 23" version="1.1" xmlns="http://www.w3.org/2000/svg" xmlns:xlink="http://www.w3.org/1999/xlink">
    <!-- Generator: Sketch 52.1 (67048) - http://www.bohemiancoding.com/sketch -->
    <title>ic-attach-file-48px</title>
    <desc>Created with Sketch.</desc>
    <g id="Workflow" stroke="none" stroke-width="1" fill="none" fill-rule="evenodd">
        <g id="Typing-states" transform="translate(-15.000000, -67.000000)" fill="#122033">
            <g id="Group-6" transform="translate(0.000000, 45.000000)">
                <g id="ic-attach-file-48px" transform="translate(15.000000, 22.000000)">
                    <path d="M9.8125,5.75 L9.8125,16.7708333 C9.8125,18.88875 8.09708333,20.6041667 5.97916667,20.6041667 C3.86125,20.6041667 2.14583333,18.88875 2.14583333,16.7708333 L2.14583333,4.79166667 C2.14583333,3.46916667 3.21916667,2.39583333 4.54166667,2.39583333 C5.86416667,2.39583333 6.9375,3.46916667 6.9375,4.79166667 L6.9375,14.8541667 C6.9375,15.38125 6.51104167,15.8125 5.97916667,15.8125 C5.44729167,15.8125 5.02083333,15.38125 5.02083333,14.8541667 L5.02083333,5.75 L3.58333333,5.75 L3.58333333,14.8541667 C3.58333333,16.1766667 4.65666667,17.25 5.97916667,17.25 C7.30166667,17.25 8.375,16.1766667 8.375,14.8541667 L8.375,4.79166667 C8.375,2.67375 6.65958333,0.958333333 4.54166667,0.958333333 C2.42375,0.958333333 0.708333333,2.67375 0.708333333,4.79166667 L0.708333333,16.7708333 C0.708333333,19.6841667 3.070625,22.0416667 5.97916667,22.0416667 C8.88770833,22.0416667 11.25,19.6841667 11.25,16.7708333 L11.25,5.75 L9.8125,5.75 Z" id="Path"></path>
                </g>
            </g>
        </g>
    </g>
</svg>