<?xml version="1.0" encoding="utf-8"?>
<!-- Generator: Adobe Illustrator 21.0.2, SVG Export Plug-In . SVG Version: 6.00 Build 0)  -->
<svg version="1.1" id="Capa_1" xmlns="http://www.w3.org/2000/svg" xmlns:xlink="http://www.w3.org/1999/xlink" x="0px" y="0px"
	 viewBox="0 0 50 40" style="enable-background:new 0 0 50 40;" xml:space="preserve">
<style type="text/css">
	.st0{fill:#B1B1B1;}
</style>
<g>
	<g>
		<path class="st0" d="M25.3,15c-4.1,0-7.5,3.4-7.5,7.5c0,4.1,3.4,7.5,7.5,7.5c4.1,0,7.5-3.4,7.5-7.5C32.8,18.4,29.5,15,25.3,15z
			 M45.3,7.5h-6c-0.8,0-1.7-0.6-2-1.4l-1.6-4.7c-0.3-0.8-1.1-1.4-2-1.4h-17c-0.8,0-1.7,0.6-2,1.4l-1.6,4.7c-0.3,0.8-1.1,1.4-2,1.4
			h-6c-2.8,0-5,2.3-5,5V35c0,2.8,2.3,5,5,5h40c2.8,0,5-2.3,5-5V12.5C50.3,9.8,48.1,7.5,45.3,7.5z M25.3,35
			c-6.9,0-12.5-5.6-12.5-12.5c0-6.9,5.6-12.5,12.5-12.5c6.9,0,12.5,5.6,12.5,12.5C37.8,29.4,32.2,35,25.3,35z M43.6,16
			c-1,0-1.8-0.8-1.8-1.8c0-1,0.8-1.8,1.8-1.8c1,0,1.8,0.8,1.8,1.8C45.3,15.2,44.5,16,43.6,16z"/>
	</g>
</g>
</svg>
