<svg height="512pt" viewBox="-63 0 512 512" width="512pt" xmlns="http://www.w3.org/2000/svg"><path d="m357.996094 145c-4.183594 0-7.574219 3.390625-7.574219 7.574219v291.261719c0 29.234374-23.785156 53.015624-53.019531 53.015624h-208.03125c-29.234375 0-53.015625-23.78125-53.015625-53.015624v-291.261719c0-4.183594-3.390625-7.574219-7.574219-7.574219s-7.574219 3.390625-7.574219 7.574219v291.261719c0 37.585937 30.578125 68.164062 68.164063 68.164062h208.03125c37.589844 0 68.167968-30.578125 68.167968-68.164062v-291.261719c0-4.183594-3.390624-7.574219-7.574218-7.574219zm0 0"/><path d="m359.003906 40.394531h-90.246094l-12.519531-25.042969c-4.734375-9.46875-14.253906-15.351562-24.839843-15.351562h-76.019532c-10.589844 0-20.105468 5.882812-24.839844 15.351562l-12.519531 25.042969h-90.25c-15.3125 0-27.769531 12.457031-27.769531 27.769531v28.277344c0 15.3125 12.457031 27.773438 27.769531 27.773438h331.238281c15.3125 0 27.769532-12.460938 27.769532-27.773438v-28.277344c0-15.3125-12.460938-27.769531-27.773438-27.769531zm-214.917968-18.269531c2.152343-4.304688 6.480468-6.976562 11.292968-6.976562h76.019532c4.8125 0 9.140624 2.671874 11.292968 6.976562l9.132813 18.269531h-116.871094zm227.542968 74.316406c0 6.960938-5.664062 12.625-12.621094 12.625h-331.238281c-6.960937 0-12.621093-5.664062-12.621093-12.625v-28.277344c0-6.960937 5.664062-12.621093 12.621093-12.621093h236.292969.023438.023437 94.898437c6.960938 0 12.621094 5.664062 12.621094 12.621093zm0 0"/><path d="m314.066406 421.617188v-188.84375c0-15.3125-12.457031-27.769532-27.769531-27.769532-15.316406 0-27.773437 12.457032-27.773437 27.769532v188.84375c0 15.3125 12.457031 27.769531 27.773437 27.769531 15.3125.003906 27.769531-12.457031 27.769531-27.769531zm-40.394531 0v-188.84375c0-6.960938 5.664063-12.625 12.625-12.625s12.621094 5.664062 12.621094 12.625v188.84375c0 6.960937-5.664063 12.621093-12.621094 12.621093-6.960937.003907-12.625-5.660156-12.625-12.621093zm0 0"/><path d="m128.253906 421.617188v-188.84375c0-15.3125-12.460937-27.769532-27.773437-27.769532s-27.769531 12.457032-27.769531 27.769532v188.84375c0 15.3125 12.457031 27.769531 27.769531 27.769531s27.773437-12.457031 27.773437-27.769531zm-40.398437 0v-188.84375c0-6.960938 5.664062-12.625 12.625-12.625 6.960937 0 12.621093 5.664062 12.621093 12.625v188.84375c0 6.960937-5.660156 12.621093-12.621093 12.621093-6.960938.003907-12.625-5.660156-12.625-12.621093zm0 0"/><path d="m221.160156 421.617188v-188.84375c0-15.3125-12.460937-27.769532-27.773437-27.769532s-27.769531 12.457032-27.769531 27.769532v188.84375c0 15.3125 12.457031 27.769531 27.769531 27.769531s27.773437-12.457031 27.773437-27.769531zm-40.394531 0v-188.84375c0-6.960938 5.664063-12.625 12.621094-12.625 6.960937 0 12.625 5.664062 12.625 12.625v188.84375c0 6.960937-5.664063 12.621093-12.625 12.621093-6.960938.003907-12.621094-5.660156-12.621094-12.621093zm0 0"/></svg>