<?xml version="1.0" encoding="utf-8"?>
<!-- Generator: Adobe Illustrator 21.0.2, SVG Export Plug-In . SVG Version: 6.00 Build 0)  -->
<svg version="1.1" id="Слой_1" xmlns="http://www.w3.org/2000/svg" xmlns:xlink="http://www.w3.org/1999/xlink" x="0px" y="0px"
	 viewBox="0 0 48 36.7" style="enable-background:new 0 0 48 36.7;" xml:space="preserve">
<g id="_8-Email">
	<path class="st0" d="M45,1.5H3c-1.7,0-3,1.3-3,3v28c0,1.7,1.3,3,3,3h42c1.7,0,3-1.3,3-3v-28C48,2.8,46.7,1.5,45,1.5z M44.4,3.5
		L24,19.2L3.6,3.5H44.4z M2,32.1V4.8l15.4,11.9L2,32.1z M3.4,33.5L19,17.9l4.4,3.4c0.4,0.3,0.9,0.3,1.2,0l4.4-3.4l15.6,15.6H3.4z
		 M46,32.1L30.6,16.7L46,4.8V32.1z"/>
</g>
</svg>
