<svg xmlns="http://www.w3.org/2000/svg" width="22" height="18" viewBox="0 0 22 18">
    <path fill="#1873F2" fill-rule="evenodd" d="M3.596 0H6.96c.598 0 .855.025 1.123.087.267.061.503.16.736.305.233.145.433.31.855.732l.452.452c.422.422.622.587.855.732.233.146.469.244.736.305.268.062.525.087 1.123.087h5.299c1.203 0 1.64.125 2.08.36.44.236.785.581 1.02 1.021.236.44.361.877.361 2.08v8.147c0 1.284-.134 1.75-.385 2.219-.25.469-.619.837-1.088 1.088-.47.251-.935.385-2.219.385H3.692c-1.284 0-1.75-.134-2.219-.385a2.617 2.617 0 0 1-1.088-1.088C.134 16.057 0 15.592 0 14.308V3.596c0-1.169.134-1.653.385-2.123.25-.469.619-.837 1.088-1.088C1.943.134 2.427 0 3.596 0zm-.72 4.95a.697.697 0 0 0-.35.072.49.49 0 0 0-.204.204.697.697 0 0 0-.072.35v.099c0 .16.025.26.072.349a.49.49 0 0 0 .204.204.697.697 0 0 0 .35.072h15.849c.16 0 .26-.025.349-.072a.49.49 0 0 0 .204-.204.697.697 0 0 0 .072-.35v-.099a.697.697 0 0 0-.072-.349.49.49 0 0 0-.204-.204.697.697 0 0 0-.35-.072H2.876z"/>
</svg>
