<?xml version="1.0" encoding="utf-8"?>
<!-- Generator: Adobe Illustrator 21.0.2, SVG Export Plug-In . SVG Version: 6.00 Build 0)  -->
<svg version="1.1" id="Capa_1" xmlns="http://www.w3.org/2000/svg" xmlns:xlink="http://www.w3.org/1999/xlink" x="0px" y="0px"
	 viewBox="0 0 17 21.3" style="enable-background:new 0 0 17 21.3;" xml:space="preserve">
<style type="text/css">
	.st0{fill:#252C43;}
</style>
<g>
	<g>
		<path class="st0" d="M14.5,7.8H13V4.4C13,2,11,0,8.5,0S4,2,4,4.4v3.4H2.5C1.1,7.8,0,9,0,10.3v8.5c0,1.4,1.1,2.5,2.5,2.5h12
			c1.4,0,2.5-1.1,2.5-2.5v-8.5C17,9,15.9,7.8,14.5,7.8z M5.7,4.4c0-1.5,1.3-2.7,2.8-2.7s2.8,1.2,2.8,2.7v3.4H5.7L5.7,4.4L5.7,4.4z
			 M15.3,18.8c0,0.5-0.4,0.8-0.8,0.8h-12c-0.5,0-0.8-0.4-0.8-0.8v-8.5c0-0.5,0.4-0.8,0.8-0.8h12c0.5,0,0.8,0.4,0.8,0.8V18.8z"/>
	</g>
</g>
<g>
	<g>
		<path class="st0" d="M8.5,11.9c-0.9,0-1.5,0.7-1.5,1.5c0,0.5,0.3,1,0.7,1.3v1.8c0,0.5,0.4,0.8,0.8,0.8c0.5,0,0.8-0.4,0.8-0.8v-1.8
			C9.8,14.5,10,14,10,13.5C10,12.6,9.4,11.9,8.5,11.9z"/>
	</g>
</g>
</svg>
