<svg xmlns="http://www.w3.org/2000/svg" width="19" height="19" viewBox="0 0 19 19">
    <path fill="#1873F2" fill-rule="evenodd" d="M13 11.586l5.767 5.767a.8.8 0 0 1 0 1.131l-.283.283a.8.8 0 0 1-1.131 0L.234 1.65a.8.8 0 0 1 0-1.132L.517.234a.8.8 0 0 1 1.132 0l5.306 5.307 4.162-4.214A1.1 1.1 0 0 1 13 2.1v9.486zm0 4.945v1.371a1.1 1.1 0 0 1-1.883.773L6.5 14.001H4.706c-.95 0-1.547-.148-2.069-.427a2.908 2.908 0 0 1-1.21-1.21C1.15 11.843 1 11.246 1 10.296v-.59c0-.95.149-1.546.427-2.068a2.908 2.908 0 0 1 1.384-1.296L13 16.53z"/>
</svg>
