<?xml version="1.0" encoding="UTF-8"?>
<svg width="19px" height="19px" viewBox="0 0 19 19" version="1.1" xmlns="http://www.w3.org/2000/svg" xmlns:xlink="http://www.w3.org/1999/xlink">
    <!-- Generator: Sketch 53 (72520) - https://sketchapp.com -->
    <title>Style</title>
    <desc>Created with Sketch.</desc>
    <g id="Web" stroke="none" stroke-width="1" fill="none" fill-rule="evenodd">
        <g id="Sidebar" transform="translate(-2255.000000, -333.000000)" fill="#A0A7B0">
            <path d="M2268,344.585786 L2273.76716,350.352944 C2274.07958,350.665363 2274.07958,351.171895 2273.76716,351.484315 L2273.48431,351.767157 C2273.1719,352.079577 2272.66536,352.079577 2272.35294,351.767157 L2255.23431,334.648528 C2254.9219,334.336109 2254.9219,333.829577 2255.23431,333.517157 L2255.51716,333.234315 C2255.82958,332.921895 2256.33611,332.921895 2256.64853,333.234315 L2261.95488,338.540669 L2266.11745,334.326948 C2266.54439,333.894755 2267.24086,333.890502 2267.67305,334.317447 C2267.88226,334.52411 2268,334.805933 2268,335.1 L2268,344.585786 Z M2268,349.53066 L2268,350.902045 C2268,351.509558 2267.50751,352.002045 2266.9,352.002045 C2266.60594,352.002045 2266.32413,351.884308 2266.11747,351.675118 L2261.5,347.001143 L2259.70552,347.001143 C2258.75512,347.001143 2258.15853,346.852622 2257.63705,346.573731 C2257.11557,346.294839 2256.7063,345.885578 2256.42741,345.364096 C2256.14852,344.842615 2256,344.246018 2256,343.295621 L2256,342.706665 C2256,341.756268 2256.14852,341.159671 2256.42741,340.63819 C2256.7063,340.116708 2257.11557,339.707447 2257.63705,339.428555 C2257.69405,339.398067 2257.75196,339.369137 2257.81113,339.341788 L2268,349.53066 L2268,349.53066 Z" id="Style"></path>
        </g>
    </g>
</svg>