<svg xmlns="http://www.w3.org/2000/svg" width="24" height="19" viewBox="0 0 24 19">
    <path fill="#1873F2" fill-rule="evenodd" d="M3.706 5.5H5.5L10.117.826A1.1 1.1 0 0 1 12 1.599V17.4a1.1 1.1 0 0 1-1.883.773L5.5 13.5H3.706c-.95 0-1.547-.149-2.069-.427a2.908 2.908 0 0 1-1.21-1.21C.15 11.341 0 10.745 0 9.794v-.588c0-.95.149-1.547.427-2.069.28-.521.689-.93 1.21-1.21.522-.278 1.118-.427 2.069-.427zM19.66 18.825a.745.745 0 0 1-1.057-.099.762.762 0 0 1 .099-1.065A10.61 10.61 0 0 0 22.5 9.502c0-3.197-1.41-6.16-3.803-8.162a.762.762 0 0 1-.099-1.066.745.745 0 0 1 1.056-.1A12.13 12.13 0 0 1 24 9.502c0 3.65-1.61 7.037-4.34 9.323zm-2.16-2.2a.75.75 0 0 1-.918-1.187A7.485 7.485 0 0 0 19.5 9.5a7.485 7.485 0 0 0-2.916-5.937.75.75 0 0 1 .917-1.187A8.985 8.985 0 0 1 21 9.5c0 2.823-1.31 5.43-3.5 7.125zm-2.19-2.12a.75.75 0 1 1-.828-1.25A4.494 4.494 0 0 0 16.5 9.5c0-1.53-.769-2.929-2.022-3.757a.75.75 0 0 1 .827-1.252A5.994 5.994 0 0 1 18 9.5c0 2.037-1.023 3.9-2.69 5.004z"/>
</svg>
