<?xml version="1.0" encoding="iso-8859-1"?>
<!-- Generator: Adobe Illustrator 19.0.0, SVG Export Plug-In . SVG Version: 6.00 Build 0)  -->
<svg version="1.1" id="Layer_1" xmlns="http://www.w3.org/2000/svg" xmlns:xlink="http://www.w3.org/1999/xlink" x="0px" y="0px"
	 viewBox="0 0 512 512" style="enable-background:new 0 0 512 512;" xml:space="preserve">
<g>
	<g>
		<path d="M380.141,159.819c-0.012,0-337.177-0.001-337.177-0.001l68.222-47.935c5.887-4.136,7.306-12.262,3.17-18.149
			c-4.136-5.886-12.263-7.306-18.149-3.17L12.014,149.72C4.492,155.005,0,163.651,0,172.847c0,9.195,4.492,17.841,12.016,23.127
			l84.191,59.156c2.279,1.601,4.891,2.37,7.478,2.37c4.1,0,8.136-1.929,10.671-5.539c4.136-5.887,2.718-14.013-3.17-18.149
			l-68.222-47.936h337.043c58.415,0,105.937,47.523,105.937,105.937s-47.523,105.937-105.937,105.937h-47.439
			c-7.194,0-13.028,5.833-13.028,13.028s5.834,13.028,13.028,13.028h47.439c72.781,0,131.993-59.212,131.993-131.993
			C512,219.074,452.861,159.892,380.141,159.819z"/>
	</g>
</g>
<g>
</g>
<g>
</g>
<g>
</g>
<g>
</g>
<g>
</g>
<g>
</g>
<g>
</g>
<g>
</g>
<g>
</g>
<g>
</g>
<g>
</g>
<g>
</g>
<g>
</g>
<g>
</g>
<g>
</g>
</svg>
