<svg xmlns="http://www.w3.org/2000/svg" viewBox="0 0 68 67.5" x="0px" y="0px"><path fill="#000000" d="M300,701.943849 L300,702 L334,702 C335.104569,702 336,702.895431 336,704 C336,705.104569 335.104569,706 334,706 L298,706 C296.895431,706 296,705.104569 296,704 L296,701.016214 C295.999925,701.006159 295.999925,700.996105 296,700.986053 L296,668 C296,666.895431 296.895431,666 298,666 L352,666 C353.104569,666 354,666.895431 354,668 L354,690 C354,691.104569 353.104569,692 352,692 C350.895431,692 350,691.104569 350,690 L350,677.089279 L337.714565,686.644617 L343.273165,691.222287 C344.125815,691.924469 344.247793,693.184911 343.54561,694.037562 C342.843428,694.890212 341.582986,695.01219 340.730336,694.310008 L334.478575,689.161499 L326.227881,695.578704 C325.50566,696.140432 324.49434,696.140432 323.772119,695.578704 L315.521425,689.161499 L300,701.943849 L300,701.943849 Z M300,696.762033 L300,696.762033 L312.285435,686.644617 L300,677.089279 L300,696.762033 Z M325,691.466277 L350,672.021832 L350,670 L300,670 L300,672.021832 L325,691.466277 Z M344,711.171573 L345.585786,709.585786 C346.366835,708.804738 347.633165,708.804738 348.414214,709.585786 C349.195262,710.366835 349.195262,711.633165 348.414214,712.414214 L343.414214,717.414214 C342.633165,718.195262 341.366835,718.195262 340.585786,717.414214 L335.585786,712.414214 C334.804738,711.633165 334.804738,710.366835 335.585786,709.585786 C336.366835,708.804738 337.633165,708.804738 338.414214,709.585786 L340,711.171573 L340,708 C340,701.372583 345.372583,696 352,696 C358.627417,696 364,701.372583 364,708 C364,714.627417 358.627417,720 352,720 C350.895431,720 350,719.104569 350,718 C350,716.895431 350.895431,716 352,716 C356.418278,716 360,712.418278 360,708 C360,703.581722 356.418278,700 352,700 C347.581722,700 344,703.581722 344,708 L344,711.171573 Z" transform="translate(-296 -666)"/></svg>