<?xml version="1.0" encoding="iso-8859-1"?>
<!-- Generator: Adobe Illustrator 19.0.0, SVG Export Plug-In . SVG Version: 6.00 Build 0)  -->
<svg version="1.1" id="Layer_1" xmlns="http://www.w3.org/2000/svg" xmlns:xlink="http://www.w3.org/1999/xlink" x="0px" y="0px"
	 viewBox="0 0 512 512" style="enable-background:new 0 0 512 512;" xml:space="preserve">
<g>
	<g>
		<path d="M508.875,493.792l-75.415-75.415c9.06-6.43,14.54-14.216,14.54-23.71c0-14.635-6.688-24.604-13.75-35.156
			c-12.208-18.219-28.917-43.167-28.917-114.177v-32c0-67.512-45.066-124.63-106.667-143.043V64
			c0-23.531-19.146-42.667-42.667-42.667S213.333,40.469,213.333,64v6.29c-30.441,9.099-56.742,27.695-75.659,52.301L18.208,3.125
			c-4.167-4.167-10.917-4.167-15.083,0s-4.167,10.917,0,15.083l122.504,122.504c-12.035,21.518-18.962,46.263-18.962,72.621v32
			c0,71.01-16.708,95.958-28.917,114.177C70.688,370.063,64,380.031,64,394.667c0,34.775,72.495,46.978,131.271,51.181
			c8.241,26.383,32.432,44.819,60.729,44.819s52.488-18.436,60.729-44.819c33.052-2.363,70.332-7.263,96.749-17.286l80.314,80.314
			c2.083,2.083,4.813,3.125,7.542,3.125c2.729,0,5.458-1.042,7.542-3.125C513.042,504.708,513.042,497.958,508.875,493.792z
			 M234.667,64c0-11.76,9.563-21.333,21.333-21.333S277.333,52.24,277.333,64v1.704C270.346,64.698,263.262,64,256,64
			s-14.346,0.698-21.333,1.704V64z M256,469.333c-15.944,0-29.947-8.799-37.221-22.147C233.893,447.824,247.018,448,256,448
			c8.983,0,22.107-0.176,37.223-0.814C285.948,460.534,271.944,469.333,256,469.333z M256,426.667
			c-97.688,0-170.667-16.896-170.667-32c0-7.802,3.292-13.063,10.146-23.281C108.417,352.052,128,322.833,128,245.333v-32
			c0-20.411,4.924-39.652,13.458-56.792l255.32,255.32C366.608,420.281,316.01,426.667,256,426.667z M418.641,403.557
			L152.889,137.806C176.204,106.063,213.68,85.333,256,85.333c70.583,0,128,57.417,128,128v32c0,77.5,19.583,106.719,32.521,126.052
			c6.854,10.219,10.146,15.479,10.146,23.281C426.667,397.609,423.822,400.617,418.641,403.557z"/>
	</g>
</g>
<g>
</g>
<g>
</g>
<g>
</g>
<g>
</g>
<g>
</g>
<g>
</g>
<g>
</g>
<g>
</g>
<g>
</g>
<g>
</g>
<g>
</g>
<g>
</g>
<g>
</g>
<g>
</g>
<g>
</g>
</svg>
