<svg xmlns="http://www.w3.org/2000/svg" width="16" height="23" viewBox="0 0 16 23">
    <path fill="#1873F2" fill-rule="evenodd" d="M7 8V3.08l-2.5 2-.92.739a.82.82 0 0 1-1.152-.128l-.257-.32a.77.77 0 0 1 .12-1.082l.085-.068 5-4.002a1 1 0 0 1 1.249 0l5 4 .085.07a.77.77 0 0 1 .12 1.082l-.256.32a.82.82 0 0 1-1.153.128L11.5 5.08l-2.5-2V8h2.898c1.426 0 1.943.149 2.465.427.521.28.93.689 1.21 1.21.278.522.427 1.039.427 2.465v6.796c0 1.426-.149 1.943-.427 2.465-.28.521-.689.93-1.21 1.21-.522.278-1.039.427-2.465.427H4.102c-1.426 0-1.943-.149-2.465-.427a2.908 2.908 0 0 1-1.21-1.21C.15 20.841 0 20.324 0 18.898v-6.796c0-1.426.149-1.943.427-2.465.28-.521.689-.93 1.21-1.21C2.159 8.15 2.676 8 4.102 8H7zm0 0v7.074c0 .237.037.386.107.517.07.13.172.232.302.302.13.07.28.107.517.107h.148c.237 0 .386-.037.517-.107a.727.727 0 0 0 .302-.302c.07-.13.107-.28.107-.517V8H7z"/>
</svg>
