<?xml version="1.0" encoding="utf-8"?>
<!-- Generator: Adobe Illustrator 21.0.2, SVG Export Plug-In . SVG Version: 6.00 Build 0)  -->
<svg version="1.1" id="Слой_1" xmlns="http://www.w3.org/2000/svg" xmlns:xlink="http://www.w3.org/1999/xlink" x="0px" y="0px"
	 viewBox="0 0 23.6 28.3" style="enable-background:new 0 0 23.6 28.3;" xml:space="preserve">
<style type="text/css">
	.st0{fill:#C4C8D2;}
</style>
<path class="st0" d="M18.2,0h-13C2.4,0,0,2.4,0,5.2v17.8c0,2.9,2.4,5.3,5.3,5.3h13c2.9,0,5.3-2.4,5.3-5.3V5.2
	C23.5,2.4,21.1,0,18.2,0z M21.1,20.8c0,2.9-2.4,5.3-5.3,5.3H7.7c-2.9,0-5.3-2.4-5.3-5.3V7.6c0-2.9,2.4-5.3,5.3-5.3h8.2
	c2.9,0,5.3,2.4,5.3,5.3V20.8z"/>
<rect x="2" y="16" class="st0" width="19.4" height="2.9"/>
</svg>
