<?xml version="1.0" encoding="utf-8"?>
<!-- Generator: Adobe Illustrator 22.1.0, SVG Export Plug-In . SVG Version: 6.00 Build 0)  -->
<svg version="1.1" id="Layer_1" xmlns="http://www.w3.org/2000/svg" xmlns:xlink="http://www.w3.org/1999/xlink" x="0px" y="0px"
	 viewBox="0 0 154.6 168.5" style="enable-background:new 0 0 154.6 168.5;" xml:space="preserve">
<style type="text/css">
	.st0{fill:#FFFFFF;}
	.st1{fill:#FF4F4C;}
</style>
<g>
	<g>
		<g>
			<path class="st0" d="M77.3,163.4c-0.5,0-1.1-0.1-1.6-0.4l-70-38.3C4.7,124,4,122.9,4,121.7V45.1c0-1.2,0.7-2.3,1.7-2.9l70-38.3
				c1-0.5,2.2-0.5,3.2,0l70,38.3c1.1,0.6,1.7,1.7,1.7,2.9v76.5c0,1.2-0.7,2.3-1.7,2.9l-70,38.3C78.4,163.2,77.9,163.4,77.3,163.4z
				 M7.7,121.5l69.6,38.1l69.7-38.1V45.4L77.3,7.2L7.7,45.4V121.5z M7.5,45.4L7.5,45.4L7.5,45.4z"/>
		</g>
		<g>
			<polygon class="st0" points="99.9,97.9 75.5,84.5 75.5,5.1 79.1,5.1 79.1,82.3 101.7,94.7 			"/>
		</g>
		<g>
			<path class="st1" d="M53.2,71.2l0,25.1c0,0.2,0.1,0.4,0.3,0.5L75.9,109c0.9,0.5,1.9,0.5,2.8,0l21.8-12.5c0.2-0.1,0.3-0.3,0.3-0.5
				V72c0-1,0.5-2,1.4-2.5l21-11.9c0.5-0.3,1,0.1,1,0.6v50.6c0,0.2-0.1,0.4-0.3,0.5l-45.5,25.4c-0.8,0.4-1.7,0.4-2.5,0l-46-25.1
				c-0.2-0.1-0.3-0.3-0.3-0.5v-51c0-0.4,0.4-0.7,0.8-0.5l21.7,11.9C52.8,70,53.2,70.6,53.2,71.2z"/>
			<path class="st0" d="M77.3,136.9c-0.7,0-1.5-0.2-2.1-0.5l-46-25.1c-0.8-0.4-1.2-1.2-1.2-2.1v-51c0-0.8,0.4-1.6,1.2-2
				c0.7-0.4,1.6-0.4,2.4,0L53.1,68c1.2,0.6,1.9,1.9,1.9,3.2l0,24.3l21.7,11.9c0.3,0.2,0.7,0.2,1,0L99,95.2V72c0-1.7,0.9-3.2,2.4-4.1
				l21-11.9c0.8-0.4,1.7-0.4,2.5,0s1.3,1.3,1.3,2.2v50.6c0,0.9-0.5,1.7-1.2,2.1l-45.5,25.4C78.8,136.7,78,136.9,77.3,136.9z
				 M31.5,108.4l45.4,24.7c0.2,0.1,0.5,0.1,0.7,0l44.8-25.1V60.2l-19.3,10.9c-0.3,0.2-0.5,0.5-0.5,0.9v24c0,0.9-0.5,1.6-1.2,2.1
				l-21.8,12.5c-1.4,0.8-3.2,0.8-4.6,0L52.6,98.4c-0.8-0.4-1.2-1.2-1.2-2.1l0-25L31.5,60.4V108.4z M30.9,108.1L30.9,108.1
				L30.9,108.1z M123.1,107.7L123.1,107.7L123.1,107.7z"/>
		</g>
		<g>
			
				<rect x="0.8" y="101.2" transform="matrix(0.877 -0.4805 0.4805 0.877 -44.3751 32.6413)" class="st0" width="81.5" height="3.7"/>
		</g>
		<g>
			
				<rect x="19" y="35.4" transform="matrix(0.4802 -0.8772 0.8772 0.4802 -35.1996 45.5619)" class="st0" width="3.7" height="34.2"/>
		</g>
		<g>
			
				<rect x="134.7" y="101.9" transform="matrix(0.4789 -0.8779 0.8779 0.4789 -30.5728 180.2562)" class="st0" width="3.7" height="27.9"/>
		</g>
	</g>
</g>
</svg>
